<svg width="18" height="16" viewBox="0 0 18 16" xmlns="http://www.w3.org/2000/svg">
    <g stroke="#FDC858" stroke-width="1.5" fill="none" fill-rule="evenodd" stroke-linecap="round" stroke-linejoin="round">
        <path d="m16.055 11.182.94-7.254a.549.549 0 0 0-.216-.521.525.525 0 0 0-.553-.045l-3.044 2.423a.52.52 0 0 1-.775-.116L9.398 1.186a.522.522 0 0 0-.796 0L5.593 5.669a.52.52 0 0 1-.775.116L1.774 3.42a.525.525 0 0 0-.553.045.549.549 0 0 0-.215.52l.939 7.197h14.11zM3.5 14.5h11"/>
    </g>
</svg>
