<svg width="118" height="282" viewBox="0 0 118 282" xmlns="http://www.w3.org/2000/svg" xmlns:xlink="http://www.w3.org/1999/xlink">
    <defs>
        <path d="M90.873 50.733H7.536C3.374 50.733 0 47.339 0 43.153V7.58C0 3.393 3.374 0 7.536 0h83.337c4.162 0 7.536 3.393 7.536 7.579v35.575c0 4.185-3.374 7.579-7.536 7.579" id="ut6lgh6r8a"/>
    </defs>
    <g fill="none" fill-rule="evenodd">
        <path d="M117.544 215.736c-.534 4.12-4.125 7.305-8.475 7.305H9.388c-4.353 0-7.946-3.19-8.477-7.313l116.633.008" fill="#151A21"/>
        <path d="M108.829 223.498H9.172c-4.645 0-8.586-3.403-9.166-7.915a.686.686 0 0 1 .604-.764c.381-.048.731.218.78.593.493 3.83 3.838 6.718 7.782 6.718h99.657c3.94 0 7.285-2.885 7.781-6.71a.699.699 0 0 1 .78-.593c.383.048.653.39.604.765-.584 4.507-4.524 7.906-9.165 7.906" fill="#FFF"/>
        <path d="M105.605 217.556H12.85a1.915 1.915 0 0 1-1.917-1.91v-.137c0-.384.313-.695.699-.695.385 0 .698.31.698.695v.138a.52.52 0 0 0 .52.518h92.754a.52.52 0 0 0 .52-.518.697.697 0 0 1 1.397 0c0 1.053-.86 1.909-1.917 1.909" fill="#FFF"/>
        <path d="M102.965 154.434V275.65c0 3.254-2.626 5.893-5.865 5.893H19.989c-3.24 0-5.865-2.639-5.865-5.893V154.434c0-3.254 2.626-5.893 5.865-5.893h77.11c3.24 0 5.866 2.639 5.866 5.893" fill="#FDC858"/>
        <path d="M19.773 149.028c-2.849 0-5.167 2.329-5.167 5.191v121.189c0 2.863 2.318 5.191 5.167 5.191H96.86c2.849 0 5.167-2.328 5.167-5.191V154.219c0-2.862-2.318-5.191-5.167-5.191H19.773zM96.86 282H19.773c-3.617 0-6.56-2.957-6.56-6.592V154.219c0-3.634 2.943-6.592 6.56-6.592H96.86c3.618 0 6.56 2.958 6.56 6.592v121.189c0 3.635-2.942 6.592-6.56 6.592z" fill="#FFF"/>
        <path d="M90.436 270.574a.693.693 0 0 1-.683-.702v-47.044c0-.387.306-.702.683-.702.378 0 .684.315.684.702v47.044a.693.693 0 0 1-.684.702M24.83 270.574a.693.693 0 0 1-.683-.702v-47.044c0-.387.306-.702.683-.702.377 0 .684.315.684.702v47.044a.693.693 0 0 1-.684.702" fill="#FFF"/>
        <path d="M37.587 159.968c-6.417 0-11.618 5.218-11.618 11.654 0 6.437 5.201 11.655 11.618 11.655 6.416 0 11.618-5.218 11.618-11.655 0-6.436-5.202-11.654-11.618-11.654" fill="#BBDFF5"/>
        <path d="M37.587 168.652c-6.417 0-11.618 5.217-11.618 11.654s5.201 11.655 11.618 11.655c6.416 0 11.618-5.218 11.618-11.655 0-6.437-5.202-11.654-11.618-11.654" fill="#BBDFF5"/>
        <path d="M47.137 174.136a.696.696 0 0 1-.702-.69c0-5.915-4.889-10.727-10.898-10.727-6.01 0-10.899 4.812-10.899 10.727 0 .38-.314.69-.701.69a.696.696 0 0 1-.701-.69c0-6.676 5.518-12.107 12.3-12.107 6.783 0 12.302 5.431 12.302 12.107 0 .38-.314.69-.701.69" fill="#6A79A8"/>
        <path d="M35.537 170.973c-6.01 0-10.899 4.904-10.899 10.933s4.889 10.933 10.899 10.933c6.01 0 10.898-4.904 10.898-10.933s-4.889-10.933-10.898-10.933zm0 23.273c-6.783 0-12.301-5.536-12.301-12.34s5.518-12.34 12.3-12.34c6.783 0 12.302 5.536 12.302 12.34s-5.519 12.34-12.301 12.34z" fill="#6A79A8"/>
        <path d="M56.494 246.51v15.677c0 3.118-2.554 5.644-5.705 5.644h-9.091c-3.151 0-5.706-2.526-5.706-5.644V246.51c0-3.118 2.555-5.645 5.706-5.645h9.09c3.152 0 5.706 2.527 5.706 5.645" fill="#DEAB40"/>
        <path d="M40.111 243.628c-2.753 0-4.992 2.218-4.992 4.944v15.666c0 2.727 2.24 4.945 4.992 4.945h9.075c2.753 0 4.992-2.218 4.992-4.945v-15.666c0-2.726-2.24-4.944-4.992-4.944H40.11zm9.075 26.946H40.11c-3.527 0-6.397-2.843-6.397-6.336v-15.666c0-3.493 2.87-6.335 6.397-6.335h9.075c3.527 0 6.397 2.842 6.397 6.335v15.666c0 3.493-2.87 6.336-6.397 6.336z" fill="#FFF"/>
        <path fill="#DEAB40" d="M69.251 269.66h9.112v-24.224H69.25zM69.251 241.78h9.112v-24.224H69.25z"/>
        <path fill="#BBDFF5" d="M69.251 212.985h9.112v-24.223H69.25zM69.251 184.191h9.112v-24.223H69.25z"/>
        <path d="M77.224 270.574a.692.692 0 0 1-.683-.702v-24.191c0-.388.305-.702.683-.702.377 0 .683.314.683.702v24.191a.693.693 0 0 1-.683.702" fill="#FFF"/>
        <path d="M77.224 185.105a.693.693 0 0 1-.683-.701v-24.192c0-.387.305-.701.683-.701.377 0 .683.314.683.701v24.192a.693.693 0 0 1-.683.701M77.224 213.442a.693.693 0 0 1-.683-.701v-24.192c0-.387.305-.701.683-.701.377 0 .683.314.683.701v24.192a.693.693 0 0 1-.683.701" fill="#6A79A8"/>
        <path d="M77.224 241.78a.692.692 0 0 1-.683-.702v-24.192c0-.387.305-.701.683-.701.377 0 .683.314.683.701v24.192a.693.693 0 0 1-.683.702" fill="#FFF"/>
        <path d="M.911 46.162v-1.41c0-4.522 3.675-8.188 8.21-8.188h100.215c4.533 0 8.208 3.666 8.208 8.188v1.41H.911" fill="#151A21"/>
        <path d="M117.303 46.62a.695.695 0 0 1-.697-.695v-1.407c0-4.125-3.369-7.48-7.51-7.48H8.904c-4.141 0-7.51 3.355-7.51 7.48v1.407a.695.695 0 0 1-.697.694.695.695 0 0 1-.697-.694v-1.407c0-4.89 3.994-8.868 8.904-8.868h100.192c4.91 0 8.904 3.978 8.904 8.868v1.407a.695.695 0 0 1-.697.694" fill="#FFF"/>
        <path d="M19.378 44.334a.687.687 0 0 1-.698-.674c0-1.645 1.387-2.983 3.092-2.983h74.456c1.705 0 3.092 1.338 3.092 2.983a.687.687 0 0 1-.698.674.687.687 0 0 1-.7-.674c0-.901-.76-1.634-1.694-1.634H21.772c-.934 0-1.695.733-1.695 1.634a.687.687 0 0 1-.699.674M21.413 157.45h-.455c.15.011.303.01.455 0" fill="#FFF"/>
        <path d="M100.232 5.684c-.376-3.4-2.232-4.65-4.012-4.626l-4.728.001V.914l-61.326.148-.003.001a3.273 3.273 0 0 0-.332.005h.293l-.953.11-1.005.408-.789.555-.85.935-.466.765-.302.703-.286 1.14v147.372h-.244c-.362 3.113-2.097 4.525-3.816 4.617l65.99.01c1.78.023 3.636-1.227 4.011-4.627h.078V5.684h8.74" fill="#151A21"/>
        <path d="M25.3 10.055h-.019a.692.692 0 0 1-.679-.706c.01-.349.01-.695.01-1.04.002-1.463.003-2.976.694-4.477.794-1.724 2.321-2.99 3.986-3.301a4.155 4.155 0 0 1 3.23.734c.785.57 1.76 1.672 2.144 3.745h64.976c-.572-3.206-2.132-3.186-2.665-3.177a.69.69 0 0 1-.707-.679.693.693 0 0 1 .688-.697c1.627-.016 3.696.856 4.18 5.164a.682.682 0 0 1-.173.535.704.704 0 0 1-.52.23h-66.38a.694.694 0 0 1-.692-.609c-.234-1.978-1.041-2.942-1.678-3.403a2.761 2.761 0 0 0-2.143-.492c-1.226.23-2.366 1.195-2.976 2.519-.566 1.23-.567 2.532-.569 3.91 0 .356 0 .714-.01 1.075a.693.693 0 0 1-.697.67" fill="#FFF"/>
        <path d="M96.799 1.371H29.858a.693.693 0 0 1-.7-.685c0-.38.313-.686.7-.686h66.94c.387 0 .7.307.7.686a.693.693 0 0 1-.7.685M25.286 153.569a.692.692 0 0 1-.684-.7V8.013c0-.386.306-.7.684-.7.377 0 .683.314.683.7V152.87a.691.691 0 0 1-.683.699M91.803 153.569a.692.692 0 0 1-.683-.7V5.27c0-.387.306-.7.683-.7.378 0 .683.313.683.7v147.598c0 .386-.305.7-.683.7" fill="#FFF"/>
        <path d="m87.826 158.14-.059-.001h-66.57a.693.693 0 0 1-.695-.69c0-.38.312-.689.696-.689H87.82c1.781 0 3.002-1.472 3.279-3.949a.695.695 0 0 1 .768-.61.69.69 0 0 1 .615.762c-.427 3.82-2.674 5.176-4.656 5.176" fill="#6A79A8"/>
        <path d="M21.334 158.14c-.253 0-.508-.024-.762-.073-1.642-.311-3.149-1.577-3.932-3.302-.681-1.5-.682-3.014-.684-4.477 0-.345 0-.692-.01-1.04a.688.688 0 1 1 1.376-.037c.01.36.01.719.01 1.075.002 1.378.003 2.68.561 3.91.601 1.325 1.726 2.29 2.936 2.52.74.14 1.49-.035 2.114-.492.627-.461 1.424-1.426 1.655-3.404a.687.687 0 1 1 1.366.16c-.288 2.47-1.358 3.73-2.206 4.352a4.077 4.077 0 0 1-2.424.807" fill="#6A79A8"/>
        <path d="M83.13 16.454H33.048a.693.693 0 0 1-.7-.686c0-.379.313-.685.7-.685H83.13c.387 0 .7.306.7.685a.693.693 0 0 1-.7.686M82.678 24.68H54.001a.69.69 0 0 1-.696-.685c0-.378.312-.685.696-.685h28.677c.385 0 .697.307.697.685a.69.69 0 0 1-.697.686M49.41 24.68H33.053a.696.696 0 0 1-.706-.685c0-.378.316-.685.706-.685H49.41c.39 0 .706.307.706.685a.696.696 0 0 1-.706.686M83.122 32.45h-8.607a.697.697 0 0 1-.708-.685c0-.379.317-.686.708-.686h8.607c.39 0 .708.307.708.686a.697.697 0 0 1-.708.686M62.63 32.45h-8.628a.692.692 0 0 1-.697-.685c0-.379.312-.686.697-.686h8.629c.385 0 .697.307.697.686a.692.692 0 0 1-.697.686M42.575 32.45h-9.52a.696.696 0 0 1-.708-.685c0-.379.317-.686.707-.686h9.521c.39 0 .707.307.707.686a.696.696 0 0 1-.707.686" fill="#FFF"/>
        <path fill="#151A21" d="M.911 207.958h116.633V51.19H.911z"/>
        <path d="M1.394 207.473h115.212V52.131H1.394v155.342zm115.91 1.399H.696a.698.698 0 0 1-.697-.7V51.433c0-.386.312-.7.697-.7h116.606c.385 0 .697.314.697.7v156.74c0 .387-.312.7-.697.7z" fill="#FFF"/>
        <path d="M100.896 111.52H17.56a7.537 7.537 0 0 1-7.536-7.537V68.325a7.537 7.537 0 0 1 7.536-7.537h83.337a7.537 7.537 0 0 1 7.536 7.537v35.658a7.537 7.537 0 0 1-7.536 7.537" fill="#151A21"/>
        <g transform="translate(10.023 60.33)">
            <mask id="fjsh092cjb" fill="#fff">
                <use xlink:href="#ut6lgh6r8a"/>
            </mask>
            <path fill="#FFF" opacity=".058" mask="url(#fjsh092cjb)" d="M5.4 72.124-10.22 50.19 67.97-59.617l15.62 21.935L5.399 72.124M22.029 95.477l-7.81-10.967L92.41-25.296l7.81 10.967L22.029 95.477M33.504 113.682l-7.81-10.967L103.887-7.091l7.81 10.967-78.192 109.806"/>
        </g>
        <path d="M17.344 61.277c-3.77 0-6.836 3.083-6.836 6.872v35.552c0 3.79 3.067 6.873 6.836 6.873h83.312c3.77 0 6.836-3.083 6.836-6.873V68.15c0-3.789-3.067-6.872-6.836-6.872H17.344zm83.312 50.7H17.344c-4.54 0-8.232-3.712-8.232-8.276V68.15c0-4.563 3.693-8.275 8.232-8.275h83.312c4.54 0 8.232 3.712 8.232 8.275v35.552c0 4.564-3.693 8.276-8.232 8.276z" fill="#FFF"/>
        <path d="M103.21 137.572H90.875a3.395 3.395 0 0 1-3.4-3.39v-7.844a3.395 3.395 0 0 1 3.4-3.391h12.337c1.877 0 3.399 1.518 3.399 3.39v7.844a3.395 3.395 0 0 1-3.4 3.391M77.697 137.572H65.36a3.395 3.395 0 0 1-3.399-3.39v-7.844a3.395 3.395 0 0 1 3.4-3.391h12.336a3.395 3.395 0 0 1 3.4 3.39v7.844a3.395 3.395 0 0 1-3.4 3.391M52.64 137.572H40.303a3.395 3.395 0 0 1-3.4-3.39v-7.844a3.395 3.395 0 0 1 3.4-3.391H52.64a3.395 3.395 0 0 1 3.399 3.39v7.844a3.395 3.395 0 0 1-3.4 3.391M103.21 158.14H90.875a3.395 3.395 0 0 1-3.4-3.392v-7.843a3.395 3.395 0 0 1 3.4-3.391h12.337c1.877 0 3.399 1.518 3.399 3.39v7.844a3.395 3.395 0 0 1-3.4 3.391M77.697 158.14H65.36a3.395 3.395 0 0 1-3.399-3.392v-7.843a3.395 3.395 0 0 1 3.4-3.391h12.336a3.395 3.395 0 0 1 3.4 3.39v7.844a3.395 3.395 0 0 1-3.4 3.391M52.64 158.14H40.303a3.395 3.395 0 0 1-3.4-3.392v-7.843a3.395 3.395 0 0 1 3.4-3.391H52.64a3.395 3.395 0 0 1 3.399 3.39v7.844a3.395 3.395 0 0 1-3.4 3.391M103.21 178.707H90.875a3.395 3.395 0 0 1-3.4-3.392v-7.843a3.395 3.395 0 0 1 3.4-3.391h12.337c1.877 0 3.399 1.518 3.399 3.391v7.843a3.395 3.395 0 0 1-3.4 3.392M77.697 178.707H65.36a3.395 3.395 0 0 1-3.399-3.392v-7.843a3.395 3.395 0 0 1 3.4-3.391h12.336a3.395 3.395 0 0 1 3.4 3.391v7.843a3.395 3.395 0 0 1-3.4 3.392M52.64 178.707H40.303a3.395 3.395 0 0 1-3.4-3.392v-7.843a3.395 3.395 0 0 1 3.4-3.391H52.64a3.395 3.395 0 0 1 3.399 3.391v7.843a3.395 3.395 0 0 1-3.4 3.392M103.21 199.274H90.875a3.395 3.395 0 0 1-3.4-3.391v-7.844a3.395 3.395 0 0 1 3.4-3.39h12.337c1.877 0 3.399 1.518 3.399 3.39v7.844a3.395 3.395 0 0 1-3.4 3.39M77.697 199.274H65.36a3.395 3.395 0 0 1-3.399-3.391v-7.844a3.395 3.395 0 0 1 3.4-3.39h12.336a3.395 3.395 0 0 1 3.4 3.39v7.844a3.395 3.395 0 0 1-3.4 3.39M52.64 199.274H40.303a3.395 3.395 0 0 1-3.4-3.391v-7.844a3.395 3.395 0 0 1 3.4-3.39H52.64a3.395 3.395 0 0 1 3.399 3.39v7.844a3.395 3.395 0 0 1-3.4 3.39M27.582 137.572H15.244a3.395 3.395 0 0 1-3.398-3.39v-7.844a3.395 3.395 0 0 1 3.398-3.391h12.338c1.877 0 3.399 1.518 3.399 3.39v7.844a3.395 3.395 0 0 1-3.4 3.391M27.582 158.14H15.244a3.395 3.395 0 0 1-3.398-3.392v-7.843a3.395 3.395 0 0 1 3.398-3.391h12.338c1.877 0 3.399 1.518 3.399 3.39v7.844a3.395 3.395 0 0 1-3.4 3.391M27.582 178.707H15.244a3.395 3.395 0 0 1-3.398-3.392v-7.843a3.395 3.395 0 0 1 3.398-3.391h12.338c1.877 0 3.399 1.518 3.399 3.391v7.843a3.395 3.395 0 0 1-3.4 3.392M27.582 199.274H15.244a3.395 3.395 0 0 1-3.398-3.391v-7.844a3.395 3.395 0 0 1 3.398-3.39h12.338c1.877 0 3.399 1.518 3.399 3.39v7.844a3.395 3.395 0 0 1-3.4 3.39" fill-opacity=".774" fill="#FFF"/>
        <path d="M.979 215.262a8.31 8.31 0 0 1-.068-1.06v-6.244h116.633v6.245c0 .361-.023.718-.068 1.068L.979 215.262" fill="#151A21"/>
        <path d="M117.236 216.185a.687.687 0 0 1-.692-.77 7.65 7.65 0 0 0 .062-.983v-5.562H1.394v5.562c0 .325.02.653.062.974a.687.687 0 0 1-.605.765.697.697 0 0 1-.778-.594A9.033 9.033 0 0 1 0 214.432v-6.247c0-.378.312-.684.697-.684h116.606a.69.69 0 0 1 .697.684v6.247c0 .385-.025.773-.074 1.154a.693.693 0 0 1-.69.599" fill="#FFF"/>
        <path d="M106.823 216.185a.697.697 0 0 1-.699-.696v-.138a.52.52 0 0 0-.52-.517H12.852a.52.52 0 0 0-.52.517.697.697 0 0 1-.698.696.697.697 0 0 1-.699-.696c0-1.053.86-1.909 1.917-1.909h92.754c1.056 0 1.916.856 1.916 1.91v.137a.697.697 0 0 1-.698.696" fill="#FFF"/>
        <path fill="#151A21" d="M.911 51.19h116.633v-5.485H.911z"/>
        <path d="M96.228 46.62H21.772c-1.705 0-3.092-1.339-3.092-2.983 0-.373.313-.674.698-.674.387 0 .7.301.7.674 0 .9.76 1.634 1.694 1.634h74.456c.934 0 1.695-.733 1.695-1.634 0-.373.312-.674.699-.674.385 0 .698.301.698.674 0 1.644-1.387 2.982-3.092 2.982" fill="#FFF"/>
        <path d="M117.303 52.104H.697A.707.707 0 0 1 0 51.387v-5.422c0-.396.312-.717.697-.717.385 0 .697.321.697.717v4.705h115.212v-4.705c0-.396.313-.717.697-.717.385 0 .697.321.697.717v5.422a.707.707 0 0 1-.697.717" fill="#FFF"/>
        <g fill="#FDC858" fill-rule="nonzero">
            <path d="M40.95 83.082c-.06.205-.155.513-.287.924-.132.41-.275.843-.429 1.298-.154.455-.308.884-.462 1.287a6.461 6.461 0 0 1-.385.869 57.044 57.044 0 0 0-.814-1.903l-.484-1.067c-.146-.323-.227-.528-.242-.616-.058-.235-.146-.37-.264-.407a1.11 1.11 0 0 0-.33-.055c-.234 0-.396.088-.484.264a1.864 1.864 0 0 0-.176.528c-.029.132-.091.348-.187.649-.095.3-.212.638-.352 1.012-.139.374-.286.748-.44 1.122-.154.374-.29.7-.407.979a12.673 12.673 0 0 1-.858-2.222 28.199 28.199 0 0 0-.726-2.222.686.686 0 0 0-.176-.275c-.073-.066-.183-.099-.33-.099a.9.9 0 0 0-.462.165.451.451 0 0 0-.198.385c0 .015.037.095.11.242.074.147.147.315.22.506.25.543.47 1.085.66 1.628.191.543.396 1.078.616 1.606.103.264.213.52.33.77.118.25.242.499.374.748.074.117.213.176.418.176.206 0 .426-.22.66-.66.294-.704.561-1.36.803-1.969s.466-1.221.671-1.837c.25.587.444 1.052.583 1.397.14.345.26.642.363.891.044.117.103.268.176.451.074.183.158.363.253.539.096.176.206.326.33.451.125.125.26.187.407.187a.417.417 0 0 0 .33-.154c.088-.103.17-.25.242-.44.147-.323.352-.84.616-1.551s.668-1.683 1.21-2.915a2.36 2.36 0 0 1 .143-.374.645.645 0 0 0 .077-.286c0-.205-.058-.341-.176-.407a.958.958 0 0 0-.33-.121c-.176 0-.308.055-.396.165-.088.11-.154.224-.198.341zM48.861 86.316c0-.528.015-1.023.044-1.485.03-.462.044-.928.044-1.397 0-.117-.029-.282-.088-.495a.976.976 0 0 0-.396-.539 1.348 1.348 0 0 0-.34-.198 1.335 1.335 0 0 0-.518-.088c-.278 0-.601.08-.968.242-.234.088-.476.22-.726.396-.249.176-.542.403-.88.682a14.185 14.185 0 0 0-1.518 1.628c-.454.616-.784 1.184-.99 1.705-.205.52-.308.972-.308 1.353 0 .293.081.55.242.77.162.22.389.33.682.33a1.4 1.4 0 0 0 .374-.055 2.8 2.8 0 0 0 .352-.121c.411-.205.836-.528 1.276-.968.44-.44.902-.953 1.386-1.54.382-.484.664-.865.847-1.144.184-.279.341-.484.473-.616 0 .264.004.627.011 1.089.008.462.044.917.11 1.364.066.447.18.84.341 1.177.162.337.411.506.748.506a.85.85 0 0 0 .363-.088 1.58 1.58 0 0 0 .418-.319c.154-.154.334-.374.54-.66.205-.286.454-.664.747-1.133a.536.536 0 0 0 .154-.396c0-.059-.029-.106-.088-.143a.303.303 0 0 0-.154-.055c-.058 0-.146.059-.264.176-.102.117-.227.268-.374.451a29.75 29.75 0 0 1-.45.55 7.447 7.447 0 0 1-.43.473c-.132.132-.242.198-.33.198-.058-.03-.117-.11-.176-.242a2.412 2.412 0 0 1-.11-.495 7.15 7.15 0 0 1-.044-.913zm-3.212-2.178c.338-.308.624-.55.858-.726.235-.176.433-.304.594-.385.162-.08.29-.132.385-.154a1.05 1.05 0 0 1 .21-.033c.073 0 .117.022.131.066a.415.415 0 0 1 .022.132.83.83 0 0 1-.044.264c-.205.381-.429.74-.67 1.078-.243.337-.466.638-.672.902-.249.308-.498.601-.748.88a14.908 14.908 0 0 1-1.419 1.408c-.432.367-.751.55-.957.55-.073 0-.124-.03-.154-.088a.355.355 0 0 1-.044-.154c0-.161.059-.381.176-.66.118-.279.283-.587.495-.924.213-.337.473-.693.781-1.067.308-.374.66-.737 1.056-1.089zM52.703 80.31c0-.19-.07-.352-.209-.484a.67.67 0 0 0-.473-.198.73.73 0 0 0-.462.176.522.522 0 0 0-.22.418c0 .264.063.499.187.704.125.205.29.308.495.308.206 0 .37-.114.495-.341.125-.227.187-.422.187-.583zm-.638 7.15v1.199c0 .11.008.224.022.341 0 .044.015.08.044.11.03.03.059.066.088.11.044.03.129.062.253.099.125.037.246.055.363.055.279 0 .418-.088.418-.264 0-.03-.003-.048-.01-.055-.008-.007-.012-.026-.012-.055a3.892 3.892 0 0 1-.198-.825 10.444 10.444 0 0 1-.088-1.023 35.634 35.634 0 0 1-.055-1.474c-.007-.47-.01-.939-.01-1.408v-1.188c0-.132-.063-.231-.188-.297a.774.774 0 0 0-.363-.099c-.19.015-.355.059-.495.132-.14.073-.209.169-.209.286 0 .03.004.062.011.099.008.037.033.114.077.231.059.161.11.41.154.748.044.337.08.704.11 1.1a32.231 32.231 0 0 1 .088 2.178zM56.413 82.862l-1.298.418c-.528.088-.792.25-.792.484 0 .117.055.216.165.297.11.08.216.121.32.121.131 0 .296-.04.494-.121.198-.08.568-.187 1.111-.319.03.704.08 1.467.154 2.288.073.821.132 1.562.176 2.222v.11c0 .22.044.4.132.539.088.14.235.209.44.209.19 0 .385-.08.583-.242.198-.161.297-.345.297-.55 0-.059-.018-.092-.055-.099a.51.51 0 0 0-.099-.011h-.132c-.073 0-.136-.08-.187-.242a3.644 3.644 0 0 1-.12-.506 13.719 13.719 0 0 1-.144-1.694 70.12 70.12 0 0 1-.033-2.266 69.07 69.07 0 0 1 1.507-.341c.447-.095.95-.143 1.507-.143a.997.997 0 0 0 .352-.066c.117-.044.176-.132.176-.264a.625.625 0 0 0-.176-.462.625.625 0 0 0-.462-.176c-.073 0-.172.011-.297.033-.125.022-.297.055-.517.099a76.695 76.695 0 0 0-2.09.462c.059-.557.114-.983.165-1.276.051-.293.077-.543.077-.748a.407.407 0 0 0-.143-.308.486.486 0 0 0-.34-.132c-.206 0-.357.051-.452.154a.77.77 0 0 0-.187.396c-.073.47-.114.891-.12 1.265a47.41 47.41 0 0 0-.012.869zM62.06 80.31c0-.19-.07-.352-.21-.484a.67.67 0 0 0-.473-.198.73.73 0 0 0-.462.176.522.522 0 0 0-.22.418c0 .264.062.499.187.704.125.205.29.308.495.308.205 0 .37-.114.495-.341.125-.227.187-.422.187-.583zm-.639 7.15v1.199c0 .11.007.224.022.341 0 .044.015.08.044.11.03.03.059.066.088.11.044.03.128.062.253.099.125.037.246.055.363.055.279 0 .418-.088.418-.264 0-.03-.004-.048-.01-.055-.008-.007-.012-.026-.012-.055a3.892 3.892 0 0 1-.198-.825 10.444 10.444 0 0 1-.088-1.023 35.634 35.634 0 0 1-.055-1.474c-.007-.47-.01-.939-.01-1.408v-1.188c0-.132-.063-.231-.188-.297a.774.774 0 0 0-.363-.099c-.19.015-.356.059-.495.132-.14.073-.209.169-.209.286 0 .03.004.062.011.099.007.037.033.114.077.231.059.161.11.41.154.748.044.337.08.704.11 1.1a32.23 32.23 0 0 1 .088 2.178zM69.355 83.852c0-.117-.011-.246-.033-.385a1.018 1.018 0 0 0-.143-.385.58.58 0 0 0-.528-.286c-.205 0-.44.114-.704.341a4.958 4.958 0 0 0-.792.902 10.68 10.68 0 0 0-.76 1.265c-.241.47-.457.946-.648 1.43a71.111 71.111 0 0 1-.187-2.332c-.037-.616-.055-.96-.055-1.034-.015-.396-.22-.594-.616-.594a.6.6 0 0 0-.363.121c-.11.08-.165.202-.165.363.117.836.224 1.632.319 2.387.095.755.143 1.529.143 2.321 0 .103-.004.202-.011.297a3.59 3.59 0 0 0-.011.275c.015.161.055.304.12.429.067.125.18.187.342.187.147-.015.253-.037.319-.066.066-.03.128-.103.187-.22.044-.088.084-.176.12-.264.038-.088.082-.205.133-.352.051-.147.12-.334.209-.561.088-.227.205-.524.352-.891.117-.279.257-.583.418-.913.161-.33.326-.63.495-.902.169-.271.326-.499.473-.682.147-.183.264-.275.352-.275.059 0 .092.073.099.22.007.147.01.293.01.44 0 .308.012.686.034 1.133.022.447.07.876.143 1.287.073.41.194.763.363 1.056.169.293.4.44.693.44.117 0 .23-.011.34-.033.11-.022.236-.095.375-.22.14-.125.304-.323.495-.594.19-.271.418-.656.682-1.155a2.99 2.99 0 0 1 .11-.198.395.395 0 0 0 .066-.198.182.182 0 0 0-.088-.165.33.33 0 0 0-.176-.055.177.177 0 0 0-.143.066c-.037.044-.07.088-.1.132-.116.176-.234.348-.351.517a9.53 9.53 0 0 1-.341.462c-.11.14-.224.253-.341.341a.613.613 0 0 1-.374.132c-.073 0-.132-.062-.176-.187a.964.964 0 0 1-.066-.253 8.973 8.973 0 0 1-.11-.858c-.03-.337-.051-.675-.066-1.012a56.096 56.096 0 0 1-.044-1.474zM74.495 83.39c-.968.88-1.661 1.738-2.08 2.574-.417.836-.626 1.533-.626 2.09 0 .308.073.58.22.814.147.235.367.352.66.352.117 0 .238-.022.363-.066.125-.044.246-.088.363-.132.44-.264.854-.583 1.243-.957a13.16 13.16 0 0 0 1.1-1.199c.345-.425.664-.862.957-1.309.293-.447.565-.884.814-1.309.044.176.088.374.132.594.03.19.066.414.11.671.044.257.088.539.132.847-.513.279-1.023.623-1.53 1.034-.505.41-.963.869-1.374 1.375a6.996 6.996 0 0 0-.99 1.617 4.363 4.363 0 0 0-.374 1.76c0 .63.183 1.151.55 1.562.367.41.865.616 1.496.616.645 0 1.18-.216 1.606-.649a4.935 4.935 0 0 0 1.023-1.562 8.074 8.074 0 0 0 .539-1.903c.103-.66.154-1.217.154-1.672 0-.293-.007-.568-.022-.825s-.03-.524-.044-.803c.147-.073.312-.15.495-.231.183-.08.4-.158.649-.231.117-.044.224-.099.319-.165a.316.316 0 0 0 .143-.275c0-.264-.125-.396-.374-.396-.235 0-.477.044-.726.132-.25.088-.462.183-.638.286a19.562 19.562 0 0 0-.22-1.595 6.42 6.42 0 0 0-.341-1.232c-.14-.345-.312-.612-.517-.803a1.06 1.06 0 0 0-.748-.286c-.25 0-.583.084-1.001.253-.418.169-.906.51-1.463 1.023zm.638 6.82a6.723 6.723 0 0 1 1.287-1.694 9.313 9.313 0 0 1 1.573-1.232c.015.161.022.33.022.506v.55c0 .396-.033.884-.1 1.463a7.907 7.907 0 0 1-.373 1.672 4.219 4.219 0 0 1-.76 1.375 1.543 1.543 0 0 1-1.231.572c-.337 0-.594-.121-.77-.363a1.437 1.437 0 0 1-.264-.869c0-.337.062-.675.187-1.012.125-.337.268-.66.429-.968zm-.066-6.094c.308-.293.565-.52.77-.682.205-.161.389-.279.55-.352l.22-.088a.588.588 0 0 1 .22-.044c.161 0 .242.08.242.242a.854.854 0 0 1-.055.286 3.082 3.082 0 0 1-.286.583c-.051.08-.084.128-.1.143-.468.704-.96 1.35-1.473 1.936a11.79 11.79 0 0 1-1.65 1.562 1.462 1.462 0 0 1-.374.253.745.745 0 0 1-.264.077c-.117 0-.176-.073-.176-.22 0-.147.055-.36.165-.638.11-.279.268-.583.473-.913.205-.33.455-.682.748-1.056s.623-.737.99-1.089zM82.67 88.208a.751.751 0 0 0-.197-.473c-.118-.125-.279-.187-.484-.187a.759.759 0 0 0-.462.165.493.493 0 0 0-.22.407c0 .264.058.499.176.704.117.205.286.308.506.308.205 0 .37-.114.495-.341.124-.227.187-.422.187-.583zm1.827 0a.724.724 0 0 0-.21-.473.641.641 0 0 0-.472-.187.714.714 0 0 0-.451.165.5.5 0 0 0-.21.407c0 .264.06.499.177.704.117.205.278.308.484.308.22 0 .388-.114.506-.341.117-.227.176-.422.176-.583zm1.848 0a.723.723 0 0 0-.21-.473.641.641 0 0 0-.472-.187.759.759 0 0 0-.462.165.493.493 0 0 0-.22.407c0 .264.062.499.187.704.124.205.29.308.495.308.22 0 .388-.114.506-.341.117-.227.176-.422.176-.583zM89.35 88.208a.751.751 0 0 0-.197-.473c-.118-.125-.279-.187-.484-.187a.759.759 0 0 0-.462.165.493.493 0 0 0-.22.407c0 .264.058.499.176.704.117.205.286.308.506.308.205 0 .37-.114.495-.341.124-.227.187-.422.187-.583z"/>
        </g>
    </g>
</svg>
