<svg width="284" height="217" viewBox="0 0 284 217" xmlns="http://www.w3.org/2000/svg">
    <g fill="none" fill-rule="evenodd">
        <path d="M193 192c0 2.21-10.895 4-24.334 4-13.44 0-36.666-1.79-36.666-4s23.227-4 36.666-4c13.44 0 24.334 1.79 24.334 4M279 192c0 1.657-7.91 3-17.667 3-9.758 0-57.333-1.343-57.333-3s47.575-3 57.333-3c9.757 0 17.667 1.343 17.667 3" fill="#EFEFEF" opacity=".197"/>
        <path d="M130.96 188.947a2.222 2.222 0 0 0-.143-.453c-1.37-3.16-23.343-2.304-27.004-2.706-19.84-2.174-39.879-5.787-59.805-2.404-5.54.94-27.228 4.035-23.602 14.052.582 1.606 2.012 2.671 3.457 3.414 24.677 12.678 68.348 9.541 92.656-2.374 2.633-1.29 15.282-5.31 14.441-9.53M137.756 203.907c-4.555-.938-9.539-1.178-14.134-.58-5.462.71-11.7 5.588-4.078 9.945 4.392 2.511 9.732 2.973 14.572 3.523 3.601.41 9.247.646 11.248-3.79 2.603-5.772-3.36-8.216-7.528-9.082l-.08-.016M98.134 182.447c3.984.96 8.34.864 11.747-1.86.539-.432 1.078-1.012 1.117-1.755.053-1.022-.834-1.745-1.634-2.211-3.398-1.981-7.853-4.138-11.783-3.51-1.826.291-3.543 1.501-4.287 3.48-.37.983-.417 2.15.009 3.095.478 1.065 1.47 1.711 2.478 2.064.762.266 1.55.503 2.353.697M17.083 197.765c.487-.461.958-1.06.914-1.75-.06-.946-1.02-1.506-1.866-1.839-3.592-1.416-8.251-2.867-12.083-1.818-1.461.4-2.843 1.354-3.498 2.785-.527 1.149-.886 2.608-.066 3.714.7.944 1.92 1.334 2.982 1.58 3.15.734 6.345.84 9.448-.223 1.525-.523 2.974-1.317 4.17-2.449" fill="#FDC858"/>
        <path d="M122.596 132.16c-5.19 24.486-7.496 44.737-3.748 45.528 0 0 58.556 36.257 84.472-14.491 2.442-4.783 6.92-7.493 11.229-6.584l41.61 8.78c5.876 1.239 9.922 7.315 9.797 14.693-.106 6.251.856 10.46 2.844 10.88 3.516.742 8.906-10.64 12.04-25.42 3.132-14.78 2.822-27.364-.694-28.106-1.989-.42-4.576 3.04-7.016 8.8-2.88 6.796-9.045 10.718-14.92 9.479l-41.611-8.78c-4.309-.908-7.555-5.145-7.596-10.554-.395-51.992-66.164-46.273-71.36-47.369-3.129-.66-9.856 18.658-15.047 43.144" fill="#151A21"/>
        <path d="M160.644 176.624c-14.11.906-28.326 1.396-41.644.504 17.947 12.13 43.294 17.262 63.642 8.434 4.004-1.738 6.098-4.067 10.036-7.434 3.373-2.883-20.59-2.238-32.034-1.504" fill="#FDC858"/>
        <path d="M118.362 178.558c15.006 7.188 31.833 14.133 48.814 12.412 8.34-.845 16.236-4.042 22.732-9.384 3.844-3.161 7.154-6.936 9.98-11.033 1.575-2.282 2.952-4.668 4.316-7.08 1.502-2.656 3.713-5.2 6.761-6.02 1.884-.506 3.656-.014 5.488.375l7.318 1.555 20.368 4.327c3.922.834 7.888 1.555 11.784 2.504 4.98 1.213 8.044 5.797 8.938 10.65.523 2.838.183 5.75.475 8.616.183 1.792.44 4.012 1.612 5.475 1.68 2.096 4.18.65 5.585-.945 2.867-3.254 4.48-7.786 5.867-11.822 2.112-6.15 3.604-12.536 4.574-18.965.805-5.332 1.384-10.886.768-16.27-.237-2.067-.74-5.927-3.43-6.182-3.833-.363-6.338 5.819-7.521 8.485-2.23 5.029-6.084 10.202-12.157 10.186-1.49-.004-2.996-.428-4.449-.736l-36.075-7.665c-1.125-.239-2.278-.426-3.39-.73-2.647-.727-4.67-2.808-5.751-5.293-1.055-2.423-.985-4.967-1.16-7.55-.515-7.65-2.518-15.228-6.656-21.73-7.065-11.102-19.285-17.152-31.702-20.106-9.897-2.354-19.923-2.71-30.024-3.269-1.15-.063-2.323-.112-3.455-.346-.845-.174-1.76 1.017-.606 1.254 2.913.6 6.046.459 9.003.59 5.076.227 10.147.583 15.18 1.288 12.108 1.698 24.664 5.407 33.828 13.926 5.117 4.756 8.762 10.865 10.742 17.565 1.212 4.101 1.841 8.367 2.021 12.637.19 4.532 1.414 9.177 5.73 11.459 1.375.727 2.889.976 4.39 1.295l6.823 1.45 19.975 4.244c4.252.903 8.497 1.87 12.762 2.711 3.289.648 6.583-.042 9.425-1.813 1.975-1.23 3.645-2.916 4.95-4.84 1.67-2.461 2.557-5.33 4.038-7.9.556-.965 2.422-4.5 3.95-3.677 1.082.584 1.4 2.64 1.597 3.703.941 5.043.371 10.467-.292 15.506-.867 6.592-2.304 13.157-4.377 19.475-1.39 4.233-2.993 9.065-5.935 12.509-.75.878-1.656 1.896-2.634.791-1.412-1.595-1.479-4.717-1.58-6.7-.135-2.644.078-5.253-.52-7.858-.521-2.263-1.497-4.463-2.943-6.285-3.12-3.93-7.547-4.51-12.08-5.473l-35.05-7.446c-1.919-.408-3.759-.686-5.718-.153-5.233 1.426-7.44 6.088-10.024 10.37-5.06 8.388-11.984 15.833-21.022 19.861-15.75 7.02-33.731 2.18-48.897-4.034-3.832-1.57-7.602-3.289-11.338-5.078-.71-.34-2.002.688-1.008 1.164" fill="#FFF"/>
        <path d="M138.074 92.682c.422 4.086.083 8.265-.294 12.34-.55 5.955-1.419 11.88-2.433 17.772-2.249 13.059-5.148 26.093-9.146 38.727-1.426 4.503-2.935 9.098-5.184 13.264-.202.376 1.446.24 1.713-.257 1.927-3.57 3.282-7.465 4.553-11.311 1.927-5.839 3.543-11.783 5.004-17.756 3.167-12.948 5.746-26.144 7.083-39.422.458-4.552.9-9.253.427-13.823-.048-.469-1.783-.11-1.723.466M119.234 178.214c-.934-.258-1.108-1.972-1.227-2.745-.307-1.987-.293-4.034-.243-6.038.175-7.046 1.145-14.089 2.247-21.037 2.541-16.03 5.983-32.237 11.418-47.541.91-2.565 1.884-5.128 3.11-7.559.433-.858.894-1.715 1.47-2.486.199-.268.416-.51.637-.758.265-.296.38-.11-.019-.172.47.072 2.007-.703 1.083-.845-2.99-.46-4.706 4.037-5.642 6.114-2.847 6.32-4.782 13.098-6.588 19.782-2.543 9.414-4.626 18.962-6.32 28.57-1.41 8.005-2.628 16.105-3.036 24.235-.133 2.635-.24 5.339.124 7.96.145 1.042.36 2.95 1.595 3.29.464.13 2.006-.6 1.391-.77M177.822 131.113c-9.076 4.568-12.818 17.813-7.11 26.65.386.597 2.004-.04 1.549-.745-5.204-8.055-2.16-20.731 6.278-24.978 1.041-.523.106-1.341-.717-.927M157.486 152.06a2 2 0 1 0-.972 3.88 2 2 0 0 0 .972-3.88M163.486 126.06a2 2 0 1 0-.971 3.88 2 2 0 0 0 .97-3.88" fill="#FFF"/>
        <path d="M164.104 160.137c1.904.493 3.177 2.174 2.843 3.756-.334 1.581-2.148 2.463-4.052 1.97-1.903-.493-3.176-2.174-2.842-3.756.334-1.58 2.148-2.463 4.051-1.97M173.104 121.137c1.904.493 3.177 2.174 2.843 3.756-.334 1.58-2.148 2.463-4.051 1.97-1.904-.492-3.177-2.174-2.843-3.755.334-1.582 2.148-2.464 4.051-1.971" fill="#FDC858" opacity=".152"/>
        <path d="M43 34.183c.152 16.88 17.072 27.29 31.588 31.306 8.02 2.22 15.977 2.638 24.235 2.429 1.464-.038 2.934-.07 4.392-.21a62.3 62.3 0 0 0 4.143-.559c.9-.147 2.217-.65 3.048-.615.648.029 1.468.496 2.063.723 1.161.442 2.315.905 3.467 1.37 5.087 2.052 10.144 4.18 15.192 6.325.335.143 1.908-.018 1.562-.7-1.641-3.231-3.204-6.586-4.29-10.046-.278-.883-.578-1.82-.639-2.748-.091-1.397.745-1.412 1.92-2.117 3.176-1.91 6.18-4.155 8.802-6.78 4.537-4.542 7.958-10.377 8.453-16.874.406-5.319-1.149-10.534-4.026-14.992-7.082-10.973-20.477-16.854-32.875-19.255-14.477-2.804-30.179-1.595-43.75 4.342C54.757 10.826 43.12 20.602 43 34.183c-.007.825 1.758.508 1.764-.175.105-11.878 9.302-20.868 19.294-25.948 13.294-6.759 29.24-8.337 43.826-5.758 12.241 2.163 25.328 7.64 32.72 18.1 3.084 4.364 4.893 9.61 4.6 14.983-.363 6.654-3.834 12.575-8.538 17.146a41.2 41.2 0 0 1-4.95 4.088 50.59 50.59 0 0 1-2.408 1.6c-.796.496-1.977.94-2.66 1.568-1.105 1.013-.613 2.705-.27 3.977 1.025 3.793 2.785 7.462 4.56 10.957l1.562-.699a1148.2 1148.2 0 0 0-12.3-5.148c-2.425-.997-4.849-2.009-7.309-2.918-2.786-1.029-5.453.14-8.353.496-7.269.889-15.076.723-22.284-.538-9.022-1.58-17.97-4.854-25.304-10.43-6.796-5.166-12.107-12.691-12.186-21.476-.007-.828-1.77-.505-1.764.175" fill="#FFF"/>
        <path d="M71.485 34.465c0-.92-.145-1.718-.435-2.393-.29-.674-.704-1.184-1.241-1.53-.538-.346-1.155-.519-1.851-.518-.496 0-.954.096-1.375.287-.42.192-.782.47-1.086.836-.304.366-.543.834-.719 1.403a6.507 6.507 0 0 0-.262 1.916c0 .715.088 1.36.263 1.938.176.578.423 1.056.744 1.436.32.38.688.665 1.103.853.415.189.87.283 1.367.283.635 0 1.218-.163 1.75-.49.532-.325.956-.828 1.27-1.508.315-.68.472-1.518.472-2.513zM67.957 28c1.27 0 2.361.264 3.272.793a5.09 5.09 0 0 1 2.069 2.255c.468.974.702 2.12.702 3.434 0 .972-.128 1.855-.384 2.65a5.776 5.776 0 0 1-1.153 2.066 5.038 5.038 0 0 1-1.888 1.338c-.746.31-1.601.464-2.565.464-.958 0-1.816-.158-2.574-.476a5.101 5.101 0 0 1-1.897-1.341c-.508-.578-.89-1.272-1.15-2.084A8.62 8.62 0 0 1 62 34.467c0-.966.135-1.852.405-2.659.27-.806.661-1.492 1.174-2.058a5.08 5.08 0 0 1 1.871-1.3c.736-.3 1.572-.45 2.507-.45zM82.731 35.5c0-.903-.203-1.606-.609-2.108-.405-.503-.95-.754-1.635-.754-.442 0-.83.112-1.167.337-.337.224-.596.555-.779.993-.181.438-.272.948-.272 1.532 0 .579.09 1.084.269 1.517.18.432.436.763.77.993.334.23.727.344 1.18.344.685 0 1.23-.253 1.635-.758.406-.506.608-1.205.608-2.096zm2.269 0c0 .659-.105 1.267-.314 1.824a4.02 4.02 0 0 1-.91 1.435c-.398.4-.873.707-1.425.92-.552.214-1.172.32-1.863.321-.684 0-1.3-.108-1.846-.324a4.1 4.1 0 0 1-1.42-.928 3.995 3.995 0 0 1-.911-1.427A5.118 5.118 0 0 1 76 35.5c0-.67.104-1.284.314-1.84.21-.557.51-1.033.903-1.428a3.986 3.986 0 0 1 1.424-.912A5.115 5.115 0 0 1 80.487 31a5.11 5.11 0 0 1 1.863.324 4.064 4.064 0 0 1 1.432.924c.398.4.7.875.907 1.427.207.551.31 1.16.311 1.824zM93.731 35.5c0-.903-.203-1.606-.608-2.109-.406-.502-.951-.753-1.636-.753-.441 0-.83.112-1.167.337-.337.224-.596.555-.778.993-.182.438-.273.949-.273 1.533 0 .578.09 1.083.269 1.516.18.432.436.763.77.993.334.23.727.344 1.18.344.685 0 1.23-.252 1.635-.758.406-.505.609-1.205.608-2.096zm2.269 0c0 .659-.105 1.267-.314 1.824a4.018 4.018 0 0 1-.91 1.435c-.398.4-.873.707-1.425.92-.552.214-1.172.321-1.863.321-.684 0-1.3-.108-1.846-.324a4.098 4.098 0 0 1-1.42-.928 3.996 3.996 0 0 1-.911-1.427 5.127 5.127 0 0 1-.311-1.82c0-.67.105-1.284.314-1.84.21-.558.51-1.033.903-1.428a3.998 3.998 0 0 1 1.424-.913 5.124 5.124 0 0 1 1.846-.32 5.12 5.12 0 0 1 1.863.324 4.071 4.071 0 0 1 1.433.924c.397.4.7.876.906 1.427.207.551.311 1.16.311 1.824zM104.689 35.718c0-.617-.093-1.148-.279-1.591-.185-.443-.443-.784-.772-1.021a1.824 1.824 0 0 0-1.092-.356c-.635 0-1.17.255-1.607.764-.435.509-.653 1.258-.653 2.248 0 .933.217 1.658.65 2.175.433.518.97.776 1.611.776.383 0 .737-.112 1.063-.339.326-.225.587-.565.784-1.017.197-.451.295-.998.295-1.639zm-4.513-3.405v.283c.433-.544.883-.943 1.35-1.197a3.261 3.261 0 0 1 1.585-.383c.708 0 1.36.186 1.957.558.596.372 1.067.915 1.413 1.63.346.715.519 1.562.519 2.54 0 .72-.1 1.383-.299 1.986-.2.604-.474 1.11-.822 1.52a3.6 3.6 0 0 1-1.235.943 3.6 3.6 0 0 1-1.531.33c-.658 0-1.21-.133-1.658-.402-.447-.269-.873-.663-1.278-1.184v3.518c0 1.03-.367 1.545-1.104 1.545-.433 0-.72-.133-.86-.399S98 42.948 98 42.439L98 32.33c0-.446.095-.779.287-1 .19-.22.452-.33.784-.33.326 0 .591.113.797.339.205.226.308.55.308.974zM116 37.105c0 .61-.157 1.133-.47 1.57-.313.434-.776.764-1.388.988-.613.225-1.358.337-2.235.337-.838 0-1.556-.121-2.154-.364-.599-.244-1.04-.547-1.325-.912-.286-.365-.428-.731-.428-1.099 0-.243.091-.451.274-.624a.965.965 0 0 1 .692-.26c.245 0 .433.057.564.17.131.114.256.273.376.478.24.395.526.69.86.884.333.195.787.292 1.363.292.467 0 .85-.099 1.15-.296.298-.197.448-.423.448-.677 0-.39-.156-.673-.466-.852-.31-.178-.822-.348-1.535-.51-.803-.189-1.457-.388-1.961-.596-.504-.207-.908-.482-1.21-.822-.302-.34-.453-.76-.453-1.257 0-.443.14-.862.419-1.257.279-.394.69-.71 1.235-.945.544-.235 1.2-.353 1.97-.353.603 0 1.146.06 1.628.178.481.12.883.279 1.205.479.322.2.567.42.735.664.168.244.253.481.253.714 0 .254-.09.462-.27.624-.18.163-.434.243-.765.243a.97.97 0 0 1-.61-.194 3.899 3.899 0 0 1-.578-.584 2.084 2.084 0 0 0-.624-.519c-.24-.13-.564-.194-.974-.194-.422 0-.772.085-1.051.255-.28.171-.42.383-.42.637 0 .233.103.423.308.572.206.148.482.271.83.368.347.098.826.217 1.436.357.723.168 1.315.368 1.773.6.459.232.807.507 1.043.823.237.316.355.677.355 1.082M118.515 41c-.412 0-.767-.133-1.066-.399-.3-.265-.449-.637-.449-1.116 0-.405.143-.754.428-1.046a1.42 1.42 0 0 1 1.057-.439c.418 0 .775.144 1.071.434.296.288.444.639.444 1.05 0 .473-.148.843-.444 1.112a1.496 1.496 0 0 1-1.04.404M124.515 41c-.412 0-.767-.133-1.066-.398-.3-.266-.449-.638-.449-1.117 0-.405.143-.754.428-1.046a1.417 1.417 0 0 1 1.057-.439c.419 0 .776.144 1.071.434.296.288.444.64.444 1.05 0 .473-.148.843-.443 1.112a1.497 1.497 0 0 1-1.042.404M129.515 41c-.412 0-.767-.133-1.066-.399-.3-.265-.449-.638-.449-1.116 0-.405.143-.754.428-1.046a1.417 1.417 0 0 1 1.057-.439c.419 0 .775.144 1.071.434.296.288.444.639.444 1.05 0 .472-.148.843-.443 1.112-.296.27-.643.404-1.042.404" fill="#FFF"/>
    </g>
</svg>
