<svg width="22" height="22" viewBox="0 0 22 22" xmlns="http://www.w3.org/2000/svg">
    <g stroke="#FFF" fill="none" fill-rule="evenodd">
        <path d="M20.133 16.933V18.3a2.733 2.733 0 0 1-2.733 2.733H3.733A2.733 2.733 0 0 1 1 18.3V8.733A2.733 2.733 0 0 1 3.733 6H17.4a2.733 2.733 0 0 1 2.733 2.733V10.1" fill="#FFF" stroke-linecap="round" stroke-linejoin="round"/>
        <path d="m17.4 6-2.122-4.244a1.366 1.366 0 0 0-1.834-.612L3.734 6" stroke-linecap="round" stroke-linejoin="round"/>
        <path d="M20.133 16.933a1.367 1.367 0 0 0 1.367-1.367v-4.1a1.367 1.367 0 0 0-1.367-1.366h-3.416a3.417 3.417 0 0 0 0 6.833h3.416z" fill="#151A21" stroke-linecap="round" stroke-linejoin="round"/>
        <path d="M16.717 13.858a.342.342 0 0 1 0-.683M16.717 13.858a.342.342 0 0 0 0-.683"/>
    </g>
</svg>
