<svg width="21" height="21" viewBox="0 0 21 21" xmlns="http://www.w3.org/2000/svg">
    <g stroke="#39414B" stroke-width="1.5" fill="none" fill-rule="evenodd">
        <path d="M11.366 1a8.724 8.724 0 0 0-7.64 4.489 8.744 8.744 0 0 0 .216 8.865L1.375 19.75l5.39-2.57a8.739 8.739 0 0 0 13.026-5.035 8.758 8.758 0 0 0-1.436-7.674A8.745 8.745 0 0 0 11.366 1h0z" stroke-linecap="round" stroke-linejoin="round"/>
        <path d="M11.375 10.063a.313.313 0 0 1 0-.625M11.375 10.063a.313.313 0 0 0 0-.625M7.625 10.063a.313.313 0 0 1 0-.625M7.625 10.063a.313.313 0 0 0 0-.625M15.125 10.063a.313.313 0 0 1 0-.625M15.125 10.063a.313.313 0 0 0 0-.625"/>
    </g>
</svg>
