<svg width="22" height="22" viewBox="0 0 22 22" xmlns="http://www.w3.org/2000/svg">
    <path d="M22 3.666C22 1.326 17.14 0 11 0S0 1.325 0 3.666c0 .552.27 1.048.764 1.483l7.486 9.826v6.107a.917.917 0 0 0 1.467.733l3.666-2.75a.917.917 0 0 0 .367-.733v-3.357l7.486-9.826c.494-.435.764-.93.764-1.483zM11 1.833c4.998 0 9.167 1.137 9.167 1.833a.19.19 0 0 1-.007.048 1.024 1.024 0 0 0-.195.123c-.54.432-1.602.818-2.996 1.11-1.555.308-3.556.536-5.726.552a134.492 134.492 0 0 1-.243 0H10.757c-2.17-.016-4.171-.244-5.726-.552-1.394-.292-2.456-.678-2.996-1.11a1.02 1.02 0 0 0-.195-.123.19.19 0 0 1-.007-.048c0-.696 4.17-1.833 9.167-1.833zm.917 16.04-1.834 1.376v-3.667h1.834v2.292zm.462-4.124H9.621L4.218 6.657c1.799.428 4.055.66 6.53.675a37.79 37.79 0 0 0 .504 0c2.475-.015 4.731-.247 6.53-.675l-5.403 7.092z" fill="#FFF" fill-rule="nonzero"/>
</svg>
