<svg width="180" height="220" viewBox="0 0 180 220" xmlns="http://www.w3.org/2000/svg">
    <g fill="none" fill-rule="evenodd">
        <path d="M3.035 87.535c-.572-3.746 5.948-6.313 11.73-7.537 13.954-2.956 28.905-3.554 43.655-3.847 38.937-.774 76.546 1.56 114.897 4.065 5.225 40.655 6.074 70.214 2.566 111.052-1.867.411-9.921.16-9.921.16L6.424 192 3.035 87.535" fill="#151A21"/>
        <path d="M74.596 77.36a785.7 785.7 0 0 0-15.593.152c-13.55.27-29.198.809-43.435 3.82-5.453 1.154-11.65 3.613-11.17 6.748a.686.686 0 0 1 .007.08l3.36 103.478 158.536-.569c.009.002.017 0 .024 0 2.016.064 7.232.16 9.244-.068 1.737-20.374 2.353-37.805 1.94-54.815-.405-16.594-1.827-33.975-4.473-54.659-35.975-2.345-66.905-4.167-98.44-4.167zM7.102 193a.683.683 0 0 1-.684-.658l-3.38-104.1c-.283-1.992 1.004-3.794 3.825-5.354 2.084-1.153 5.074-2.177 8.42-2.885 14.355-3.037 30.08-3.58 43.692-3.85 37.336-.74 72.554 1.304 114.712 4.054.327.021.593.27.635.592 2.698 20.975 4.146 38.565 4.554 55.355.418 17.207-.214 34.84-1.99 55.494a.68.68 0 0 1-.533.606c-1.908.42-9.588.19-10.058.175L7.105 193h-.003z" fill="#FFF"/>
        <path d="M149.463 51.399c14.418 17.102 12.242 42.652-4.858 57.067-17.102 14.415-42.652 12.238-57.069-4.865C73.12 86.5 75.296 60.95 92.396 46.534s42.652-12.237 57.067 4.865" fill="#FDC858"/>
        <path d="M118.946 47.366c-7.208 0-14.116 2.514-19.69 7.213C93 59.852 89.173 67.246 88.479 75.399c-.694 8.151 1.828 16.086 7.101 22.342 5.274 6.256 12.668 10.085 20.821 10.78 8.154.694 16.087-1.827 22.343-7.1 6.255-5.273 10.082-12.667 10.777-20.82.694-8.152-1.827-16.087-7.101-22.343s-12.668-10.084-20.821-10.779a31.236 31.236 0 0 0-2.653-.113zm.11 62.634c-.92 0-1.843-.04-2.77-.119-8.518-.725-16.24-4.724-21.75-11.26-5.509-6.534-8.143-14.823-7.418-23.339.725-8.516 4.724-16.24 11.258-21.748 6.535-5.508 14.822-8.142 23.339-7.416 8.517.726 16.24 4.725 21.748 11.26 5.51 6.535 8.144 14.824 7.419 23.34-.725 8.516-4.723 16.239-11.258 21.747-5.822 4.908-13.04 7.535-20.567 7.535z" fill="#FFF"/>
        <path d="M68.875 12.884c21.879 4.624 35.867 26.11 31.241 47.99C95.49 82.752 74.003 96.74 52.124 92.116c-21.879-4.625-35.866-26.11-31.24-47.99 4.626-21.88 26.112-35.868 47.991-31.243" fill="#FDC858"/>
        <path d="M60.94 21.366c-5.868 0-11.614 1.693-16.647 4.97-6.855 4.463-11.562 11.328-13.255 19.331-1.692 8.003-.166 16.186 4.297 23.041 4.462 6.855 11.327 11.562 19.33 13.254 8.003 1.691 16.186.165 23.041-4.298 6.856-4.463 11.563-11.328 13.255-19.331 1.692-8.003.166-16.186-4.296-23.041-4.463-6.855-11.328-11.562-19.33-13.254a30.912 30.912 0 0 0-6.395-.672zM61.063 84a32.29 32.29 0 0 1-6.68-.702c-8.36-1.767-15.531-6.684-20.193-13.844-4.661-7.161-6.255-15.71-4.488-24.07 1.768-8.36 6.685-15.53 13.846-20.193 7.161-4.662 15.709-6.256 24.069-4.49 8.36 1.768 15.53 6.685 20.192 13.846 4.662 7.16 6.256 15.708 4.489 24.068-1.769 8.36-6.686 15.532-13.847 20.194C73.195 82.23 67.191 84 61.063 84zM149.72 29a.723.723 0 0 1-.408-.125.699.699 0 0 1-.184-.985 81.996 81.996 0 0 1 15.694-16.73.73.73 0 0 1 1.014.1.7.7 0 0 1-.1.995 80.563 80.563 0 0 0-15.421 16.44.724.724 0 0 1-.594.305M131.647 22c-.02 0-.04 0-.06-.003a.662.662 0 0 1-.584-.724 78.805 78.805 0 0 1 4.75-20.848.641.641 0 0 1 .836-.38c.332.134.497.52.366.863a77.466 77.466 0 0 0-4.667 20.486.655.655 0 0 1-.641.606M157.691 44a.696.696 0 0 1-.652-.5c-.126-.386.066-.807.427-.94A74.928 74.928 0 0 1 179.273 38c.379-.021.707.292.726.7.02.41-.273.758-.654.78a73.615 73.615 0 0 0-21.427 4.478.66.66 0 0 1-.227.041" fill="#FFF"/>
        <path d="M163.203 96.828c3.26 35.789 3.636 79.773 1.306 116.956-53.66 7.375-125.875 8.545-158.95-7.258C.598 178.925-.603 131.416 3.394 88c.514 3.374 6.44 5.252 11.62 6.376 28.51 6.188 107.116 4.264 148.19 2.452" fill="#151A21"/>
        <path d="M5.843 206.312c18.964 8.993 49.046 11.58 71.002 12.162 26.98.716 57.618-1.061 86.333-5.005 2.324-37.858 1.847-81.192-1.278-116.2-10.916.48-43.031 1.755-75.503 1.755-28.263 0-56.794-.965-71.877-4.262-3.261-.713-5.776-1.5-7.688-2.405-1.442-.683-2.54-1.445-3.288-2.278-1.771 20.367-2.483 42.13-2.061 63.098.416 20.692 1.964 39.54 4.36 53.135zM88.787 220c-4.06 0-8.057-.052-11.978-.155-22.21-.59-52.71-3.228-71.871-12.447a.688.688 0 0 1-.377-.498C2.118 193.212.54 174.143.119 153.206c-.44-21.823.347-44.5 2.274-65.583a.683.683 0 0 1 1.354-.04c.355 2.348 4.077 4.313 11.063 5.84 32.605 7.126 128.74 3.29 147.68 2.448a.686.686 0 0 1 .71.623c3.2 35.358 3.687 79.329 1.306 117.621a.684.684 0 0 1-.588.636c-24.777 3.43-51.012 5.249-75.131 5.249z" fill="#FFF"/>
        <path d="M162.537 143.815c-3.681 1.152-7.654 1.668-11.53 2.03a79.663 79.663 0 0 1-18.95-.493c-.266 9.436.493 28.794.493 28.794 8.908 3.665 19.173 3.343 27.72 1.583 6.835-1.407 11.132-3.705 14.677-8.958 3.697-5.476 3.972-12.4 4.049-18.801.092-7.656-1.404-16.548-1.735-22.97.11 3.433-1.204 7.887-3.043 10.605-2.941 4.347-7.085 6.773-11.68 8.21" fill="#151A21"/>
        <path d="M133.897 172.998c9.413 3.728 19.69 2.811 26.697 1.369 7.051-1.452 10.882-3.784 14.133-8.603 3.46-5.126 3.819-11.574 3.9-18.286.055-4.648-.473-9.67-.985-14.525a671.03 671.03 0 0 1-.244-2.333c-.555 1.85-1.338 3.616-2.261 4.98-2.703 3.994-6.611 6.748-11.951 8.419-3.864 1.209-8.022 1.712-11.58 2.043a79.827 79.827 0 0 1-18.2-.385c-.184 8.653.384 24.47.491 27.32zM148.765 177c-5.088 0-10.57-.744-15.795-2.894a.69.69 0 0 1-.424-.61c-.007-.192-.751-19.346-.49-28.627a.683.683 0 0 1 .783-.66 78.464 78.464 0 0 0 18.64.484c3.486-.325 7.557-.816 11.299-1.986 5.033-1.575 8.705-4.152 11.226-7.88 1.785-2.638 3.005-6.892 2.9-10.118a.685.685 0 0 1 1.369-.058c.125 2.423.42 5.209.73 8.158.493 4.667 1.05 9.956.993 14.686-.084 6.928-.463 13.598-4.135 19.04-3.435 5.09-7.638 7.664-14.991 9.178-3.423.705-7.61 1.287-12.105 1.287z" fill="#FFF"/>
        <path d="M148.16 154.368c-2.236 0-4.399.823-5.923 2.341-2.517 2.504-1.998 5.498-.673 7.466 1.575 2.34 4.984 4.302 8.75 3.079 3.356-1.091 5.68-4.5 5.18-7.602-.37-2.294-2.138-4.127-4.73-4.903a9.063 9.063 0 0 0-2.604-.381zM147.978 169c-3.33 0-6.159-1.902-7.628-4.087-2.066-3.07-1.742-6.575.845-9.15 2.494-2.48 6.42-3.392 10.003-2.32 3.128.937 5.266 3.18 5.72 6.002.6 3.726-2.153 7.809-6.138 9.103-.96.312-1.9.452-2.802.452zM78.012 177c-.13 0-.259-.001-.389-.005-6.301-.2-11.962-5.26-12.62-11.28a.656.656 0 0 1 .602-.711.669.669 0 0 1 .743.577c.283 2.59 1.624 5.077 3.776 7 2.153 1.924 4.832 3.03 7.544 3.116 2.71.083 5.46-.848 7.74-2.63 2.28-1.785 3.79-4.18 4.25-6.746.064-.353.414-.59.781-.53a.651.651 0 0 1 .551.749C89.943 172.38 84.17 177 78.012 177M53.316 143c-.174 0-.35.005-.527.015-2.491.146-4.624 1.296-5.705 3.078-.178.294-.064.664.255.83.318.164.722.059.9-.235.86-1.418 2.593-2.336 4.634-2.456 2.04-.121 3.885.589 4.934 1.895a.7.7 0 0 0 .925.127.579.579 0 0 0 .138-.853c-1.223-1.523-3.272-2.401-5.554-2.401M101.477 143c-2.308 0-4.37 1.123-5.39 2.94a.681.681 0 0 0 .237.914.636.636 0 0 0 .886-.244c.788-1.402 2.42-2.27 4.266-2.27h.035c1.86.01 3.499.9 4.275 2.32a.637.637 0 0 0 .884.253.68.68 0 0 0 .246-.912c-1.006-1.838-3.075-2.988-5.399-3.001h-.04" fill="#FFF"/>
        <path d="M52.639 168.203c3.805-16.219-23.737-18.43-22.605-1.386.867 13.058 19.74 13.598 22.605 1.386M122.639 168.203c3.805-16.219-23.737-18.43-22.605-1.386.867 13.058 19.74 13.598 22.605 1.386" fill="#FDC858" opacity=".152"/>
    </g>
</svg>
