<svg width="54" height="54" viewBox="0 0 54 54" xmlns="http://www.w3.org/2000/svg">
    <g fill="none" fill-rule="evenodd">
        <circle stroke="#979797" cx="27" cy="27" r="26.5"/>
        <g stroke="#FFF" stroke-linecap="round" stroke-linejoin="round" stroke-width="1.2">
            <path d="M29.933 16H18.2a2.2 2.2 0 0 0-2.2 2.2v7.333a2.2 2.2 0 0 0 2.2 2.2h2.2v4.4l4.4-4.4h5.133a2.2 2.2 0 0 0 2.2-2.2V18.2a2.2 2.2 0 0 0-2.2-2.2z"/>
            <path d="M24.8 33.6h4.4l4.4 4.4v-4.4h2.2a2.2 2.2 0 0 0 2.2-2.2v-7.333a2.2 2.2 0 0 0-2.2-2.2h-.733"/>
        </g>
    </g>
</svg>
