<svg width="92" height="92" viewBox="0 0 92 92" xmlns="http://www.w3.org/2000/svg">
    <g fill="none" fill-rule="evenodd">
        <circle fill="#39414B" opacity=".13" cx="46" cy="46" r="46"/>
        <g opacity=".253" transform="translate(32 31)" fill="#151A21">
            <path d="M1 27.745c.313-7.067 4.64-10.29 12.98-9.67 8.338.62 12.679 4.021 13.02 10.202L1 29v-1.255z" stroke="#151A21" opacity=".197"/>
            <path d="M14 17C4.972 17 0 21.231 0 28.914 0 29.514.49 30 1.097 30h25.806C27.51 30 28 29.514 28 28.914 28 21.23 23.028 17 14 17zM2.233 27.827c.431-5.744 4.385-8.654 11.767-8.654s11.336 2.91 11.767 8.654H2.233z" fill-rule="nonzero"/>
            <ellipse stroke="#151A21" opacity=".197" cx="14.5" cy="8" rx="5" ry="5.5"/>
            <path d="M14 0c-3.99 0-7 3.124-7 7.267C7 11.531 10.14 15 14 15s7-3.469 7-7.733C21 3.124 17.99 0 14 0zm0 12.692c-2.573 0-4.667-2.43-4.667-5.418 0-2.878 1.963-4.966 4.667-4.966 2.66 0 4.667 2.135 4.667 4.966 0 2.988-2.094 5.418-4.667 5.418z" fill-rule="nonzero"/>
        </g>
    </g>
</svg>
