<svg width="45" height="40" viewBox="0 0 45 40" xmlns="http://www.w3.org/2000/svg">
    <g fill="#FFF" fill-rule="nonzero">
        <path d="M10.03 33.119A19.589 19.589 0 0 1 2.61 17.722 19.589 19.589 0 0 1 10.03 2.325 1.304 1.304 0 0 0 8.404.285C3.064 4.54 0 10.895 0 17.721a22.184 22.184 0 0 0 8.405 17.437 1.304 1.304 0 0 0 1.626-2.04zM36.117.284a1.304 1.304 0 0 0-1.625 2.04 19.589 19.589 0 0 1 7.421 15.398 19.589 19.589 0 0 1-7.421 15.397 1.304 1.304 0 0 0 1.625 2.04c5.341-4.256 8.405-10.612 8.405-17.437 0-6.826-3.064-13.181-8.405-17.438z"/>
        <path d="M14.377 27.675a12.657 12.657 0 0 1-4.812-9.953c0-3.893 1.754-7.521 4.812-9.953a1.304 1.304 0 1 0-1.624-2.042c-3.684 2.93-5.796 7.302-5.796 11.995 0 4.692 2.112 9.064 5.796 11.994a1.304 1.304 0 0 0 1.624-2.041zM31.769 5.727a1.304 1.304 0 0 0-1.624 2.042 12.656 12.656 0 0 1 4.812 9.953c0 3.893-1.754 7.52-4.812 9.953a1.304 1.304 0 1 0 1.624 2.041c3.683-2.93 5.796-7.302 5.796-11.994 0-4.693-2.113-9.065-5.796-11.995zM22.26 11.217a6.53 6.53 0 0 0-6.52 6.522c0 3.15 2.243 5.785 5.217 6.39v14.567a1.304 1.304 0 0 0 2.608 0V24.13c2.973-.606 5.218-3.241 5.218-6.39a6.53 6.53 0 0 0-6.522-6.523zm0 10.435a3.917 3.917 0 0 1-3.912-3.913 3.917 3.917 0 0 1 3.913-3.913 3.917 3.917 0 0 1 3.913 3.913 3.917 3.917 0 0 1-3.913 3.913z"/>
    </g>
</svg>
