<svg width="17" height="17" viewBox="0 0 17 17" xmlns="http://www.w3.org/2000/svg">
    <g fill="#FDC858" fill-rule="nonzero">
        <path d="M16.977 6.692a1.331 1.331 0 0 0-1.06-1.551l-2.83-.531a.22.22 0 0 0-.149 0 .205.205 0 0 0-.063.141v1.112c.001.087.063.16.148.177l2.2.41c.191.037.318.22.283.412l-1.563 8.355a.354.354 0 0 1-.41.284L5.22 13.95a.361.361 0 0 1-.283-.418l.07-.396a.163.163 0 0 0 0-.15.177.177 0 0 0-.134-.063H3.756a.177.177 0 0 0-.17.142l-.12.637a1.338 1.338 0 0 0 1.061 1.558l9.154 1.735c.082.007.165.007.248 0a1.33 1.33 0 0 0 1.301-1.09l1.747-9.213z"/>
        <path d="M10.646 12.038a1.33 1.33 0 0 0 1.323-1.331V1.33A1.33 1.33 0 0 0 10.646 0H1.33A1.33 1.33 0 0 0 0 1.331v9.376a1.33 1.33 0 0 0 1.33 1.33h9.316zm-.445-10.622c.195 0 .353.159.353.354V8.81c0 .098-.079.177-.177.177H1.592a.177.177 0 0 1-.177-.177V1.77c0-.195.158-.354.353-.354h8.433z"/>
    </g>
</svg>
