<svg width="25" height="25" viewBox="0 0 25 25" xmlns="http://www.w3.org/2000/svg">
    <g fill="none" fill-rule="evenodd">
        <path d="M19.4 14.254v4.665a4.635 4.635 0 0 1-4.621 4.621H5.62A4.635 4.635 0 0 1 1 18.919V9.76A4.635 4.635 0 0 1 5.621 5.14h4.58"/>
        <path d="M19.4 14.254v4.665a4.635 4.635 0 0 1-4.621 4.621H5.62A4.635 4.635 0 0 1 1 18.919V9.76A4.635 4.635 0 0 1 5.621 5.14h4.58M19.4 1v8.28M15.26 5.14h8.28" stroke="#FFF" stroke-width="2" stroke-linecap="round"/>
    </g>
</svg>
