<svg width="21" height="22" viewBox="0 0 21 22" xmlns="http://www.w3.org/2000/svg">
    <g transform="translate(1 1.071)" stroke="#FFF" fill="none" fill-rule="evenodd" stroke-linecap="round" stroke-linejoin="round">
        <circle cx="9.66" cy="10" r="3.333"/>
        <path d="M16.993 10c0-.62-.085-1.217-.229-1.792l2.556-1.476-2-3.464-2.553 1.475A7.301 7.301 0 0 0 11.66 2.95V0h-4v2.95a7.334 7.334 0 0 0-3.107 1.793L2 3.268 0 6.732l2.556 1.476A7.349 7.349 0 0 0 2.326 10c0 .619.086 1.217.23 1.792L0 13.268l2 3.464 2.555-1.475A7.301 7.301 0 0 0 7.66 17.05V20h4v-2.95a7.337 7.337 0 0 0 3.107-1.791l2.555 1.474 2-3.464-2.556-1.476A7.509 7.509 0 0 0 16.993 10z"/>
    </g>
</svg>
