<svg width="21" height="21" viewBox="0 0 21 21" xmlns="http://www.w3.org/2000/svg">
    <path d="M13.77 6.896c3.9.483 5.881.806 5.941.97.06.164-1.465 1.859-4.575 5.084 1.078 4.32 1.548 6.536 1.41 6.648-.138.112-2.195-.76-6.172-2.615-3.972 1.853-6.027 2.724-6.165 2.612-.138-.113.332-2.329 1.41-6.649C2.507 9.722.98 8.027 1.04 7.863c.06-.164 2.04-.488 5.942-.97C9.072 2.963 10.202 1 10.374 1c.17 0 1.302 1.965 3.395 5.896z" fill="#FDB722" stroke="#FDB722" stroke-width="1.25" fill-rule="evenodd" stroke-linecap="round" stroke-linejoin="round"/>
</svg>
