<svg width="126" height="126" viewBox="0 0 126 126" xmlns="http://www.w3.org/2000/svg">
    <g fill="none" fill-rule="evenodd">
        <path d="M0 63c0 34.794 28.206 63 63 63s63-28.206 63-63S97.794 0 63 0 0 28.206 0 63z" fill="#343C45" fill-rule="nonzero"/>
        <path d="M46 31h55a8 8 0 0 1 8 8v48a8 8 0 0 1-8 8H46a8 8 0 0 1-8-8V39a8 8 0 0 1 8-8z" fill="#59616B" fill-rule="nonzero"/>
        <path d="M42 35h55a8 8 0 0 1 8 8v44a8 8 0 0 1-8 8H42a8 8 0 0 1-8-8V43a8 8 0 0 1 8-8z" fill="#4D545E" fill-rule="nonzero"/>
        <path d="M37 29h55a8 8 0 0 1 8 8v52a8 8 0 0 1-8 8H37a8 8 0 0 1-8-8V37a8 8 0 0 1 8-8z" fill="#59616B" fill-rule="nonzero"/>
        <path d="M33 35h55a8 8 0 0 1 8 8v46a8 8 0 0 1-8 8H33a8 8 0 0 1-8-8V43a8 8 0 0 1 8-8z" fill="#4D545E" fill-rule="nonzero"/>
        <path d="M38 108.5c0 1.25 3.717 2.406 9.75 3.031 6.033.625 13.467.625 19.5 0 6.033-.625 9.75-1.78 9.75-3.031 0-1.25-3.717-2.406-9.75-3.031-6.033-.625-13.467-.625-19.5 0-6.033.625-9.75 1.78-9.75 3.031z" fill="#45413C" fill-rule="nonzero" opacity=".15"/>
        <path fill="#59616B" fill-rule="nonzero" d="M20 38h71v49H20z"/>
        <path d="M20 38h71v49H20z"/>
        <path d="M91 87v5.5a5.586 5.586 0 0 1-1.558 3.891A5.235 5.235 0 0 1 85.675 98h-60.35a5.235 5.235 0 0 1-3.767-1.609A5.586 5.586 0 0 1 20 92.5V87h71z" fill="#F0F0F0" fill-rule="nonzero"/>
        <path d="M91 87v5.5a5.586 5.586 0 0 1-1.558 3.891A5.235 5.235 0 0 1 85.675 98h-60.35a5.235 5.235 0 0 1-3.767-1.609A5.586 5.586 0 0 1 20 92.5V87h71z" fill="#687079" fill-rule="nonzero"/>
        <g fill="#4D545E" fill-rule="nonzero">
            <path d="M27 93a2 2 0 1 0 4 0 2 2 0 0 0-4 0zM38 93a2 2 0 1 0 4 0 2 2 0 0 0-4 0zM48 93a2 2 0 1 0 4 0 2 2 0 0 0-4 0zM59 93a2 2 0 1 0 4 0 2 2 0 0 0-4 0zM70 93a2 2 0 1 0 4 0 2 2 0 0 0-4 0zM82 95a2 2 0 1 0 0-4 2 2 0 0 0 0 4z"/>
        </g>
        <g fill-rule="nonzero">
            <path d="M65.167 64.897c.516-.288.833-.821.833-1.398 0-.576-.317-1.109-.833-1.397l-17.67-9.886a1.71 1.71 0 0 0-1.665 0c-.515.288-.832.82-.832 1.397v19.773c0 .576.317 1.11.832 1.398a1.71 1.71 0 0 0 1.665 0l17.67-9.887z" fill="#424A53"/>
            <path d="M65.167 64.662c.516-.283.833-.806.833-1.372 0-.566-.317-1.09-.833-1.372l-17.67-9.706a1.738 1.738 0 0 0-1.665 0A1.571 1.571 0 0 0 45 53.583v3.427a1.563 1.563 0 0 1 .832-1.372 1.703 1.703 0 0 1 1.666 0L64.553 65l.614-.338z" fill="#4D545E"/>
        </g>
        <path d="M91 32.5V38H20v-5.5a5.586 5.586 0 0 1 1.557-3.891A5.233 5.233 0 0 1 25.325 27h60.35a5.233 5.233 0 0 1 3.768 1.609A5.586 5.586 0 0 1 91 32.5z" fill="#F0F0F0" fill-rule="nonzero"/>
        <path d="M91 32.5V38H20v-5.5a5.586 5.586 0 0 1 1.557-3.891A5.233 5.233 0 0 1 25.325 27h60.35a5.233 5.233 0 0 1 3.768 1.609A5.586 5.586 0 0 1 91 32.5z" fill="#687079" fill-rule="nonzero"/>
        <g fill="#4D545E" fill-rule="nonzero">
            <path d="M27 33a2 2 0 1 0 4 0 2 2 0 0 0-4 0zM38 33a2 2 0 1 0 4 0 2 2 0 0 0-4 0zM48 33a2 2 0 1 0 4 0 2 2 0 0 0-4 0zM59 33a2 2 0 1 0 4 0 2 2 0 0 0-4 0zM70 33a2 2 0 1 0 4 0 2 2 0 0 0-4 0zM80 33a2 2 0 1 0 4 0 2 2 0 0 0-4 0z"/>
        </g>
    </g>
</svg>
