<svg width="126" height="126" viewBox="0 0 126 126" xmlns="http://www.w3.org/2000/svg">
    <g fill-rule="nonzero" fill="none">
        <path d="M0 63c0 34.794 28.206 63 63 63s63-28.206 63-63S97.794 0 63 0 0 28.206 0 63z" fill="#DEDEDE" opacity=".677"/>
        <path d="M46 31h55a8 8 0 0 1 8 8v48a8 8 0 0 1-8 8H46a8 8 0 0 1-8-8V39a8 8 0 0 1 8-8z" fill="#F7F7F7"/>
        <path d="M42 35h55a8 8 0 0 1 8 8v44a8 8 0 0 1-8 8H42a8 8 0 0 1-8-8V43a8 8 0 0 1 8-8z" fill="#DFDFDF" opacity=".423"/>
        <path d="M37 29h55a8 8 0 0 1 8 8v52a8 8 0 0 1-8 8H37a8 8 0 0 1-8-8V37a8 8 0 0 1 8-8z" fill="#F7F7F7"/>
        <path d="M33 35h55a8 8 0 0 1 8 8v46a8 8 0 0 1-8 8H33a8 8 0 0 1-8-8V43a8 8 0 0 1 8-8z" fill="#DFDFDF" opacity=".423"/>
        <path fill="#F7F7F7" d="M20 38h71v49H20zM91 87v5.5a5.586 5.586 0 0 1-1.558 3.891A5.235 5.235 0 0 1 85.675 98h-60.35a5.235 5.235 0 0 1-3.767-1.609A5.586 5.586 0 0 1 20 92.5V87h71zM91 32.5V38H20v-5.5a5.586 5.586 0 0 1 1.557-3.891A5.233 5.233 0 0 1 25.325 27h60.35a5.233 5.233 0 0 1 3.768 1.609A5.586 5.586 0 0 1 91 32.5z"/>
        <path d="m48.5 97.7 12.647-22.34c1.408-2.487 3.68-3.963 6.103-3.963 2.422 0 4.695 1.476 6.103 3.963L86 97.7H48.5z" fill="#D2D2D2"/>
        <path d="m26 97.7 16.5-27.281c1.418-2.341 3.64-3.719 6.001-3.719s4.584 1.378 6.001 3.719L71 97.7H26z" fill="#E1E1E1"/>
        <path d="M60 49.5a6.5 6.5 0 1 0 13 0 6.5 6.5 0 0 0-13 0z" fill="#DEDEDE"/>
    </g>
</svg>
